

<svg
   version="1.1"
   baseProfile="full"
   xmlns="http://www.w3.org/2000/svg">
  width="150mm"
  height="350mm"
  viewBox="0 0 744.09448819 1052.3622047"
  <title>Shield</title>
  <g>
    <path
      d="M 50,100 Q 40,850 350,1000 Q 670,850 650,100 Z"
      style="opacity:1;fill:#000000;fill-opacity:0.2;stroke:#000000;stroke-width:3;stroke-linejoin:miter;stroke-opacity:1"
    />
  </g>
  <g>
    <rect
      y="100"
      x="250"
      width="200"
      height="150"
      style="fill:#00ff00;stroke:#000000;stroke-width:0.24710871px;stroke-linejoin:miter;stroke-opacity:1" />
    <rect
      y="100"
      x="50"
      width="200"
      height="150"
      style="fill:#ff0000;stroke:#000000;stroke-width:0.24710871px;stroke-linejoin:miter;stroke-opacity:1"
       />
    <rect
      y="100"
      x="450"
      width="200"
      height="150"
      style="fill:#0000ff;stroke:#000000;stroke-width:0.24710871px;stroke-linejoin:miter;stroke-opacity:1" />
  </g>
  <g>
    <path
      d="M 67,445 Q 87,600 90,580 L 350,390 615,580 Q 615,600 637,445 L 350,250 Z"
      style="fill:#ffff00;fill-opacity:0.4;stroke:#000000;stroke-width:1px;stroke-linejoin:miter;stroke-opacity:1"
     />
  </g>
  <g>
    <path
      d="M 88,580 Q 92,600 114,682 L 437,943 Q 457,925 500,875 Z"
      style="fill:#ffff00;fill-opacity:0.4;stroke:#000000;stroke-width:1px;stroke-linejoin:miter;stroke-opacity:1"
    />

      <path
        d="M 616,580 Q 614,600 590,682 L 265,943 Q 245,925 205,875 Z"
        style="fill:#ffff00;fill-opacity:0.4;stroke:#000000;stroke-width:1px;stroke-linejoin:miter;stroke-opacity:1"
      />
  </g>

</svg>
